<?xml version="1.0" standalone="no"?><!DOCTYPE svg PUBLIC "-//W3C//DTD SVG 1.1//EN" "http://www.w3.org/Graphics/SVG/1.1/DTD/svg11.dtd"><svg t="1573782132360" class="icon" viewBox="0 0 1024 1024" version="1.1" xmlns="http://www.w3.org/2000/svg" p-id="5683" xmlns:xlink="http://www.w3.org/1999/xlink" width="48" height="48"><defs><style type="text/css"></style></defs><path d="M880.414022 124.087882c10.998926 0 19.998047 8.999121 19.998047 19.998047v735.928132c0 10.998926-8.999121 19.998047-19.998047 19.998047h-735.928132c-10.998926 0-19.998047-8.999121-19.998047-19.998047v-735.928132c0-10.998926 8.999121-19.998047 19.998047-19.998047h735.928132m0-59.994141h-735.928132c-44.195684 0-79.992188 35.796504-79.992188 79.992188v735.928132c0 44.195684 35.796504 79.992188 79.992188 79.992188h735.928132c44.195684 0 79.992188-35.796504 79.992188-79.992188v-735.928132c0-44.195684-35.796504-79.992188-79.992188-79.992188z" p-id="5684"></path><path d="M64.493702 244.076164h119.988282v59.994142h-119.988282z" p-id="5685"></path><path d="M64.493702 720.029685h119.988282v59.994141h-119.988282z" p-id="5686"></path><path d="M780.423787 64.093741h59.994141v895.912508h-59.994141z" p-id="5687"></path><path d="M688.43277 276.17303h-48.895225l-126.687628 226.977834-126.687628-226.977834h-48.895225l139.286398 241.576409H370.263841v26.997363h121.488136v69.293233H370.263841v27.097354h121.488136v106.18963H533.947857V641.137389h121.488136v-27.097354H533.947857v-69.293233h121.488136v-26.997363H549.146372z" p-id="5688"></path></svg>