<svg xmlns="http://www.w3.org/2000/svg" class="leaflet-zoom-animated" width="1982" height="1134" viewBox="-41 -24 1982 1134" style="transform: translate3d(-41px, -24px, 0px);"><g><path stroke-linejoin="round" stroke-linecap="round" fill-rule="evenodd" stroke="#333" stroke-opacity="1" stroke-width="1" fill="transparent" fill-opacity="0.2" class="leaflet-clickable" d="M1164 459L1164 459zM1158 463L1158 463zM1159 463L1159 463zM1114 466L1114 466zM1161 466L1160 466zM1150 574L1147 572L1149 573zM1158 586L1158 586zM1152 590L1152 590zM1155 595L1155 595zM1126 651L1126 651zM1123 652L1125 652L1123 652zM1068 687L1068 687zM1064 688L1065 688zM1047 698L1048 696zM1017 716L1027 716L1028 721L1023 725L1021 733L1013 737L1013 739L1000 735L999 731L1000 724L1007 718L1012 717zM1060 862L1066 858L1065 862L1062 863zM1103 774L1105 774L1103 775zM1035 762L1034 761L1036 761L1035 763L1036 762zM1154 591L1154 591zM1056 691L1057 691zM1180 449L1180 449zM1029 718L1029 718zM1089 830L1089 831zM1064 686L1063 687L1066 687L1064 690L1062 688L1059 690L1061 686L1064 686zM1021 704L1022 706L1018 705L1019 703zM1134 687L1130 679L1131 671L1141 655L1148 651L1152 655L1150 657L1151 661L1148 667L1146 678L1141 685L1139 694L1137 693L1137 689zM1157 581L1157 582zM1155 588L1155 588zM1155 588L1157 588zM1155 590L1156 591L1152 591L1151 589zM1180 449L1177 455L1166 455L1167 456L1162 457L1153 463L1153 466L1148 466L1149 468L1142 470L1142 467L1148 465L1147 462L1149 461L1146 462L1143 458L1146 457L1146 454L1150 452L1152 449L1151 448L1155 445L1150 438L1140 439L1141 441L1136 445L1135 449L1124 453L1121 459L1122 460L1117 464L1113 464L1112 468L1107 463L1105 465L1105 469L1102 469L1103 474L1107 479L1117 479L1119 484L1121 485L1117 488L1121 493L1126 493L1132 487L1132 485L1138 483L1143 487L1145 486L1147 489L1153 487L1154 489L1160 490L1157 495L1159 495L1158 497L1154 498L1154 496L1152 496L1147 499L1146 498L1139 501L1141 502L1137 504L1137 508L1133 509L1133 507L1131 507L1133 510L1130 511L1128 515L1125 515L1125 518L1120 524L1124 527L1122 527L1124 527L1123 528L1133 533L1136 543L1139 547L1140 556L1145 558L1146 563L1151 565L1152 572L1146 570L1145 571L1149 574L1153 583L1151 580L1141 583L1149 591L1154 592L1150 595L1152 596L1152 603L1148 602L1150 606L1148 606L1149 608L1147 608L1149 612L1142 617L1142 615L1142 620L1140 618L1137 621L1136 628L1130 632L1131 634L1127 636L1130 633L1125 633L1125 635L1127 635L1128 638L1125 640L1125 646L1123 647L1126 649L1127 647L1127 650L1126 649L1125 651L1124 649L1124 651L1123 649L1121 649L1120 650L1122 652L1119 652L1119 655L1119 652L1117 652L1118 653L1116 654L1118 654L1118 656L1114 657L1116 658L1114 659L1114 661L1108 660L1108 664L1104 669L1100 673L1094 673L1093 676L1090 678L1090 681L1082 683L1075 682L1071 686L1070 683L1067 684L1067 687L1065 685L1060 687L1058 683L1056 691L1053 694L1051 691L1049 694L1047 693L1046 695L1040 695L1037 698L1035 697L1024 700L1023 702L1018 704L1022 711L1019 714L1015 714L1013 709L1012 706L1014 699L1011 698L1006 700L1006 698L1000 696L995 699L995 697L986 697L982 695L982 693L978 693L978 689L976 688L980 682L973 682L972 680L969 681L965 679L962 675L961 677L956 679L956 682L951 684L949 682L947 686L943 683L942 685L940 682L937 687L930 683L928 687L923 688L922 686L919 689L923 697L921 700L923 702L922 703L919 701L916 702L915 695L908 699L905 699L903 698L904 696L902 696L901 692L893 691L893 687L895 686L894 683L896 682L895 681L897 681L894 678L889 678L889 672L887 668L889 666L880 666L875 670L874 668L876 666L874 658L877 657L876 654L881 650L881 647L883 648L885 644L887 644L886 641L888 635L887 623L884 621L884 623L881 615L878 612L877 613L875 610L873 611L871 616L872 617L869 620L859 614L853 613L849 615L848 618L837 622L829 631L818 630L812 632L812 626L806 623L807 620L805 617L803 616L800 619L796 616L786 614L779 620L779 625L776 627L774 624L775 619L773 615L762 619L756 619L751 616L747 618L745 617L745 615L743 616L744 618L739 612L738 614L733 613L732 608L729 610L722 605L721 600L715 602L711 597L706 595L703 591L699 590L698 586L690 585L689 591L687 591L686 588L678 583L675 583L670 578L664 578L660 573L660 565L657 563L656 557L660 555L660 558L663 560L666 556L665 548L659 542L659 536L663 533L655 528L652 520L653 517L642 516L635 513L635 511L631 512L628 508L629 506L627 500L623 499L622 496L616 496L616 494L612 494L612 492L616 492L619 490L616 486L616 474L610 471L608 471L607 473L604 472L604 466L600 461L605 458L605 451L616 447L615 445L620 445L624 442L626 445L625 447L632 445L633 447L635 445L637 437L649 436L650 434L653 433L653 431L659 430L667 424L676 421L676 418L678 418L676 412L677 409L681 408L679 406L683 403L683 398L679 389L679 381L676 377L674 378L673 376L675 374L679 374L694 368L696 371L703 371L703 368L700 366L700 364L709 338L719 342L728 342L731 344L734 341L737 341L739 337L737 324L740 318L749 316L753 305L763 305L764 308L762 310L766 313L765 315L771 318L773 322L778 325L783 324L785 328L789 327L792 331L794 338L800 346L798 353L800 358L796 363L798 371L828 375L842 385L850 386L849 390L851 390L855 402L861 410L870 409L896 413L912 411L922 414L925 418L933 419L946 425L953 423L953 427L959 428L961 425L987 414L1008 415L1021 409L1027 401L1038 395L1032 385L1038 373L1043 373L1047 377L1057 379L1066 371L1067 368L1077 368L1086 363L1090 353L1099 352L1100 349L1102 348L1103 350L1110 346L1116 347L1117 345L1119 348L1126 349L1128 347L1129 343L1126 338L1115 329L1113 325L1104 325L1100 331L1093 327L1087 327L1083 330L1079 326L1078 322L1082 320L1082 316L1085 311L1084 310L1092 293L1104 299L1113 291L1119 290L1122 287L1122 284L1119 283L1127 271L1130 260L1137 255L1138 251L1136 247L1138 244L1135 242L1130 243L1130 240L1139 230L1156 226L1162 227L1167 225L1174 226L1176 229L1178 228L1180 231L1183 231L1185 233L1188 231L1195 236L1194 238L1196 237L1197 240L1199 240L1197 243L1200 244L1202 247L1201 248L1203 248L1201 250L1204 252L1203 255L1206 259L1205 261L1208 265L1207 267L1208 268L1209 266L1208 271L1212 277L1212 282L1216 286L1215 294L1218 297L1222 298L1229 297L1229 299L1233 301L1238 300L1238 303L1240 303L1242 307L1246 310L1251 310L1249 314L1250 316L1252 316L1253 320L1251 323L1254 330L1272 330L1274 326L1278 323L1283 323L1291 318L1297 319L1301 317L1296 320L1295 325L1297 330L1295 334L1291 336L1289 348L1287 350L1288 354L1285 356L1286 357L1283 361L1283 364L1279 368L1279 372L1277 374L1265 369L1260 375L1256 375L1254 377L1256 379L1258 390L1258 400L1256 406L1248 410L1250 411L1250 414L1246 411L1246 408L1242 406L1240 415L1236 415L1231 421L1221 422L1224 428L1222 431L1216 431L1210 428L1208 424L1204 427L1204 431L1197 438L1187 443L1187 445L1185 444z"/></g></svg>