<?xml version="1.0" standalone="no"?><!DOCTYPE svg PUBLIC "-//W3C//DTD SVG 1.1//EN" "http://www.w3.org/Graphics/SVG/1.1/DTD/svg11.dtd"><svg t="1573782203154" class="icon" viewBox="0 0 1025 1024" version="1.1" xmlns="http://www.w3.org/2000/svg" p-id="7600" xmlns:xlink="http://www.w3.org/1999/xlink" width="48.046875" height="48"><defs><style type="text/css"></style></defs><path d="M675.79486 466.129768l6.549729 0 6.557105 0c3.614152 0 6.549729-2.928201 6.549729-6.549729l0-13.106834c0-3.614152-2.928201-6.549729-6.549729-6.549729l-6.557105 0-6.549729 0L543.642273 439.923476l121.767431-121.767431c5.111444-5.111444 5.111444-13.409243 0-18.520687-5.126196-5.11882-13.409243-5.11882-18.535439 0L512.007376 434.502247 377.133111 299.642734c-5.111444-5.11882-13.401867-5.11882-18.520687 0-5.126196 5.111444-5.126196 13.409243 0 18.520687l121.767431 121.767431L348.219892 439.930852l-6.557105 0-6.557105 0c-3.614152 0-6.549729 2.928201-6.549729 6.549729l0 13.106834c0 3.614152 2.928201 6.549729 6.549729 6.549729l6.557105 0 6.557105 0 150.688026 0 0 117.932004-150.688026 0-6.557105 0-6.557105 0c-3.614152 0-6.549729 2.928201-6.549729 6.549729l0 13.099458c0 3.614152 2.928201 6.549729 6.549729 6.549729l6.557105 0 6.557105 0 150.688026 0 0 98.275441 0 6.557105 0 6.549729c0 3.621528 2.928201 6.557105 6.549729 6.557105l13.099458 0c3.621528 0 6.557105-2.928201 6.557105-6.557105l0-6.549729 0-6.557105L525.11421 610.260689l150.688026 0 6.549729 0 6.557105 0c3.614152 0 6.549729-2.928201 6.549729-6.549729l0-13.099458c0-3.614152-2.928201-6.549729-6.549729-6.549729l-6.557105 0-6.549729 0-150.688026 0L525.11421 466.129768 675.79486 466.129768 675.79486 466.129768z" p-id="7601"></path><path d="M512.007376 0C229.233145 0 0 229.233145 0 512.014752c0 282.759479 229.233145 511.985248 512.007376 511.985248s512-229.225769 512-511.985248C1024.007376 229.233145 794.781607 0 512.007376 0zM512.007376 999.032845c-268.974069 0-487.02547-218.0514-487.02547-487.018094 0-268.981445 218.0514-487.032845 487.02547-487.032845 268.988821 0 487.032845 218.0514 487.032845 487.032845C999.040221 780.988821 780.996197 999.032845 512.007376 999.032845z" p-id="7602"></path></svg>